<?xml version="1.0" encoding="UTF-8"?>
<svg id="Illustration" xmlns="http://www.w3.org/2000/svg" xmlns:xlink="http://www.w3.org/1999/xlink" viewBox="0 0 400 370">
  <defs>
    <style>
      .cls-1 {
        fill: url(#linear-gradient-2);
      }

      .cls-2 {
        fill: url(#linear-gradient-51);
      }

      .cls-3, .cls-4, .cls-5 {
        fill: #fff;
      }

      .cls-6 {
        fill: url(#linear-gradient-17);
      }

      .cls-4 {
        opacity: .9;
      }

      .cls-7 {
        fill: url(#linear-gradient-43);
      }

      .cls-8 {
        fill: url(#linear-gradient-15);
      }

      .cls-9 {
        fill: url(#linear-gradient-18);
      }

      .cls-10 {
        fill: url(#linear-gradient-56);
      }

      .cls-11 {
        fill: url(#linear-gradient-40);
      }

      .cls-12 {
        fill: url(#linear-gradient-52);
      }

      .cls-13 {
        fill: url(#linear-gradient-28);
      }

      .cls-14 {
        fill: url(#linear-gradient-14);
      }

      .cls-15 {
        fill: url(#linear-gradient-36);
      }

      .cls-16 {
        fill: url(#linear-gradient-20);
      }

      .cls-17 {
        fill: url(#linear-gradient-6);
      }

      .cls-18 {
        fill: url(#linear-gradient-53);
      }

      .cls-19 {
        fill: url(#linear-gradient-35);
      }

      .cls-20 {
        fill: url(#linear-gradient-48);
      }

      .cls-21 {
        fill: url(#linear-gradient-32);
      }

      .cls-22 {
        fill: url(#linear-gradient-11);
      }

      .cls-23 {
        fill: url(#linear-gradient-50);
      }

      .cls-24 {
        fill: url(#linear-gradient-39);
      }

      .cls-25 {
        fill: url(#linear-gradient-10);
      }

      .cls-26 {
        fill: #91b3fa;
      }

      .cls-27 {
        fill: url(#linear-gradient-49);
      }

      .cls-28 {
        fill: url(#linear-gradient-37);
      }

      .cls-29 {
        fill: url(#linear-gradient-16);
      }

      .cls-30 {
        fill: url(#linear-gradient-31);
      }

      .cls-31 {
        fill: #7d97f4;
      }

      .cls-32 {
        fill: url(#linear-gradient-41);
      }

      .cls-33 {
        fill: url(#linear-gradient-21);
      }

      .cls-34 {
        fill: url(#linear-gradient-25);
      }

      .cls-35 {
        fill: url(#linear-gradient-5);
      }

      .cls-36 {
        fill: url(#linear-gradient-54);
      }

      .cls-37 {
        fill: url(#linear-gradient-45);
      }

      .cls-38 {
        fill: url(#linear-gradient-55);
      }

      .cls-39 {
        clip-path: url(#clippath);
      }

      .cls-40 {
        fill: url(#linear-gradient-34);
      }

      .cls-41 {
        fill: none;
      }

      .cls-42 {
        fill: url(#linear-gradient-7);
      }

      .cls-43 {
        fill: url(#linear-gradient-24);
      }

      .cls-44 {
        fill: url(#linear-gradient-9);
      }

      .cls-45 {
        fill: url(#linear-gradient-22);
      }

      .cls-46 {
        fill: url(#linear-gradient-42);
      }

      .cls-47 {
        fill: url(#linear-gradient-3);
      }

      .cls-48 {
        fill: url(#linear-gradient);
      }

      .cls-5 {
        opacity: .78;
      }

      .cls-49 {
        fill: url(#linear-gradient-27);
      }

      .cls-50 {
        fill: url(#linear-gradient-33);
      }

      .cls-51 {
        fill: url(#linear-gradient-38);
      }

      .cls-52 {
        fill: url(#linear-gradient-29);
      }

      .cls-53 {
        fill: url(#linear-gradient-30);
      }

      .cls-54 {
        fill: url(#linear-gradient-23);
      }

      .cls-55 {
        fill: url(#linear-gradient-19);
      }

      .cls-56 {
        fill: url(#linear-gradient-4);
      }

      .cls-57 {
        fill: url(#linear-gradient-8);
      }

      .cls-58 {
        fill: url(#linear-gradient-44);
      }

      .cls-59 {
        fill: url(#linear-gradient-47);
      }

      .cls-60 {
        fill: url(#linear-gradient-46);
      }

      .cls-61 {
        fill: url(#linear-gradient-12);
      }

      .cls-62 {
        fill: url(#linear-gradient-13);
      }

      .cls-63 {
        fill: url(#linear-gradient-26);
      }
    </style>
    <linearGradient id="linear-gradient" x1="199.24" y1="42.04" x2="202.35" y2="42.04" gradientUnits="userSpaceOnUse">
      <stop offset="0" stop-color="#09005d"/>
      <stop offset="1" stop-color="#1a0f91"/>
    </linearGradient>
    <linearGradient id="linear-gradient-2" x1="299.14" y1="741.63" x2="302.05" y2="741.63" gradientTransform="translate(-477.62 -413.11) rotate(-33.09)" xlink:href="#linear-gradient"/>
    <linearGradient id="linear-gradient-3" x1="165.51" y1="1133.3" x2="168.44" y2="1133.3" gradientTransform="translate(-833.99 -509.9) rotate(-52.09)" xlink:href="#linear-gradient"/>
    <linearGradient id="linear-gradient-4" x1="-1613.27" y1="-504.5" x2="-1610.32" y2="-504.5" gradientTransform="translate(-1403.72 -413.11) rotate(-146.91) scale(1 -1)" xlink:href="#linear-gradient"/>
    <linearGradient id="linear-gradient-5" x1="-1236.67" y1="-667.5" x2="-1233.76" y2="-667.5" gradientTransform="translate(-1047.35 -509.9) rotate(-127.91) scale(1 -1)" xlink:href="#linear-gradient"/>
    <clipPath id="clippath">
      <path class="cls-41" d="M270.6,30.13c-1.23-1.97-3.43-3.17-5.82-3.16-42.6,.02-85.29,.05-128.05,.07-2.4,0-4.62,1.2-5.88,3.18-1.25,1.98-1.35,4.44-.27,6.52,5.21,10,10.41,19.97,15.6,29.91,1.52,2.92,4.64,4.77,8.03,4.76,30.99-.05,61.93-.09,92.84-.14,3.38,0,6.49-1.85,8.03-4.78,5.24-9.93,10.48-19.89,15.75-29.86,1.09-2.07,1-4.53-.22-6.5Z"/>
    </clipPath>
    <linearGradient id="linear-gradient-6" x1="240.35" y1="39.01" x2="128.87" y2="134.36" gradientUnits="userSpaceOnUse">
      <stop offset="0" stop-color="#e1473d"/>
      <stop offset="1" stop-color="#e9605a"/>
    </linearGradient>
    <linearGradient id="linear-gradient-7" x1="14.85" y1="74.4" x2="60" y2="74.4" gradientUnits="userSpaceOnUse">
      <stop offset="0" stop-color="#dae3fe"/>
      <stop offset="1" stop-color="#e9effd"/>
    </linearGradient>
    <linearGradient id="linear-gradient-8" x1="377.82" y1="284.42" x2="381.53" y2="284.42" xlink:href="#linear-gradient-7"/>
    <linearGradient id="linear-gradient-9" x1="269.65" y1="400.84" x2="417.91" y2="141.5" gradientUnits="userSpaceOnUse">
      <stop offset="0" stop-color="#4f52ff"/>
      <stop offset="1" stop-color="#4042e2"/>
    </linearGradient>
    <linearGradient id="linear-gradient-10" x1="109.66" y1="1172.37" x2="109.66" y2="1189.65" gradientTransform="translate(-626.85 -274.75) rotate(-50.86) scale(.95 .94)" xlink:href="#linear-gradient-6"/>
    <linearGradient id="linear-gradient-11" x1="257.58" y1="325.3" x2="167.73" y2="224.83" gradientUnits="userSpaceOnUse">
      <stop offset="0" stop-color="#ff928e"/>
      <stop offset="1" stop-color="#fe7062"/>
    </linearGradient>
    <linearGradient id="linear-gradient-12" x1="203.8" y1="281.61" x2="-15.53" y2="-34.34" xlink:href="#linear-gradient-11"/>
    <linearGradient id="linear-gradient-13" x1="131.61" y1="212.28" x2="177.3" y2="212.28" xlink:href="#linear-gradient-6"/>
    <linearGradient id="linear-gradient-14" x1="157.95" y1="195.24" x2="140.04" y2="248.46" gradientUnits="userSpaceOnUse">
      <stop offset="0" stop-color="#febbba"/>
      <stop offset="1" stop-color="#ff928e"/>
    </linearGradient>
    <linearGradient id="linear-gradient-15" x1="246.91" y1="227.27" x2="146.91" y2="88.62" xlink:href="#linear-gradient-11"/>
    <linearGradient id="linear-gradient-16" x1="256.08" y1="245.28" x2="36.75" y2="-70.67" xlink:href="#linear-gradient-11"/>
    <linearGradient id="linear-gradient-17" x1="139.03" y1="102.42" x2="166.47" y2="102.42" xlink:href="#linear-gradient-6"/>
    <linearGradient id="linear-gradient-18" x1="147.61" y1="106.22" x2="177.11" y2="106.22" xlink:href="#linear-gradient-6"/>
    <linearGradient id="linear-gradient-19" x1="227.2" y1="372.25" x2="155.72" y2="311.87" xlink:href="#linear-gradient-11"/>
    <linearGradient id="linear-gradient-20" x1="155.8" y1="314.96" x2="-63.53" y2="-.99" xlink:href="#linear-gradient-11"/>
    <linearGradient id="linear-gradient-21" x1="137.88" y1="306.3" x2="163.53" y2="306.3" xlink:href="#linear-gradient-6"/>
    <linearGradient id="linear-gradient-22" x1="2465.96" y1="350.87" x2="2390.85" y2="432.57" gradientTransform="translate(-2394.11)" xlink:href="#linear-gradient"/>
    <linearGradient id="linear-gradient-23" x1="2441.59" y1="356.93" x2="2448.26" y2="356.93" gradientTransform="translate(-2394.11)" xlink:href="#linear-gradient-14"/>
    <linearGradient id="linear-gradient-24" x1="2471.91" y1="258.38" x2="2407.94" y2="345.09" gradientTransform="translate(-2394.11)" xlink:href="#linear-gradient"/>
    <linearGradient id="linear-gradient-25" x1="2449.13" y1="335.36" x2="2373.98" y2="417.11" gradientTransform="translate(-2394.11)" xlink:href="#linear-gradient"/>
    <linearGradient id="linear-gradient-26" x1="2417.54" y1="356.59" x2="2423.3" y2="356.59" gradientTransform="translate(-2394.11)" xlink:href="#linear-gradient-14"/>
    <linearGradient id="linear-gradient-27" x1="2460.52" y1="249.98" x2="2396.56" y2="336.67" gradientTransform="translate(-2394.11)" xlink:href="#linear-gradient"/>
    <linearGradient id="linear-gradient-28" x1="2411.82" y1="225.93" x2="2469.12" y2="225.93" gradientTransform="translate(-2394.11)" xlink:href="#linear-gradient"/>
    <linearGradient id="linear-gradient-29" x1="4642.26" y1="176.99" x2="4665.15" y2="229.07" gradientTransform="translate(4743.67) rotate(-180) scale(1 -1)" xlink:href="#linear-gradient-14"/>
    <linearGradient id="linear-gradient-30" x1="2502.96" y1="159.65" x2="2512.51" y2="144.96" gradientTransform="translate(-2394.11)" xlink:href="#linear-gradient-14"/>
    <linearGradient id="linear-gradient-31" x1=".73" y1="209.24" x2="26.65" y2="209.24" xlink:href="#linear-gradient-7"/>
    <linearGradient id="linear-gradient-32" x1="2427.58" y1="184.88" x2="2444.63" y2="184.88" gradientTransform="translate(-2394.11)" xlink:href="#linear-gradient-14"/>
    <linearGradient id="linear-gradient-33" x1="14.48" y1="248.37" x2="45.17" y2="248.37" xlink:href="#linear-gradient-7"/>
    <linearGradient id="linear-gradient-34" x1="2442.57" y1="216.38" x2="2473.35" y2="194.23" gradientTransform="translate(-2394.11)" gradientUnits="userSpaceOnUse">
      <stop offset="0" stop-color="#9cfffb"/>
      <stop offset="1" stop-color="#9bfffa"/>
    </linearGradient>
    <linearGradient id="linear-gradient-35" x1=".37" y1="230.54" x2="43.5" y2="230.54" xlink:href="#linear-gradient-7"/>
    <linearGradient id="linear-gradient-36" x1="2450.66" y1="199.84" x2="2474.39" y2="298.75" gradientTransform="translate(-2394.11)" xlink:href="#linear-gradient-9"/>
    <linearGradient id="linear-gradient-37" x1="2434.41" y1="226.01" x2="2447.85" y2="226.01" gradientTransform="translate(-2394.11)" xlink:href="#linear-gradient-14"/>
    <linearGradient id="linear-gradient-38" x1="1005.57" y1="-55.8" x2="981.89" y2="-24.47" gradientTransform="translate(-734.88 793.2) rotate(-35.75)" xlink:href="#linear-gradient-14"/>
    <linearGradient id="linear-gradient-39" x1="987.5" y1="-48.28" x2="1015.77" y2="-48.28" gradientTransform="translate(-734.88 793.2) rotate(-35.75)" xlink:href="#linear-gradient"/>
    <linearGradient id="linear-gradient-40" x1="970.89" y1="-30.99" x2="989.89" y2="-50.48" gradientTransform="translate(-734.88 793.2) rotate(-35.75)" xlink:href="#linear-gradient-14"/>
    <linearGradient id="linear-gradient-41" x1="3379.1" y1="1349.23" x2="3281.25" y2="1426.06" gradientTransform="translate(-3015.63 -1032.73) rotate(.14)" xlink:href="#linear-gradient"/>
    <linearGradient id="linear-gradient-42" x1="-7055.43" y1="1368.06" x2="-6968.84" y2="1339.51" gradientTransform="translate(-6701 -1041.73) rotate(-179.86) scale(1 -1)" xlink:href="#linear-gradient"/>
    <linearGradient id="linear-gradient-43" x1="317.67" y1="321.72" x2="338.57" y2="321.72" xlink:href="#linear-gradient-14"/>
    <linearGradient id="linear-gradient-44" x1="1377.61" y1="1354.23" x2="1279.76" y2="1431.06" gradientTransform="translate(1611.89 -1032.73) rotate(179.86) scale(1 -1)" xlink:href="#linear-gradient"/>
    <linearGradient id="linear-gradient-45" x1="-5053.93" y1="1373.06" x2="-4967.34" y2="1344.51" gradientTransform="translate(5297.26 -1041.73) rotate(-.14)" xlink:href="#linear-gradient"/>
    <linearGradient id="linear-gradient-46" x1="-1683.84" y1="321.72" x2="-1662.94" y2="321.72" gradientTransform="translate(-1403.74) rotate(-180) scale(1 -1)" xlink:href="#linear-gradient-14"/>
    <linearGradient id="linear-gradient-47" x1="227.56" y1="252.52" x2="370.21" y2="252.52" xlink:href="#linear-gradient"/>
    <linearGradient id="linear-gradient-48" x1="332.79" y1="56.91" x2="293.65" y2="168.55" xlink:href="#linear-gradient-6"/>
    <linearGradient id="linear-gradient-49" x1="285.66" y1="101.02" x2="299.83" y2="54.22" xlink:href="#linear-gradient-14"/>
    <linearGradient id="linear-gradient-50" x1="270.47" y1="67.28" x2="277.74" y2="43.28" xlink:href="#linear-gradient-14"/>
    <linearGradient id="linear-gradient-51" x1="-1672.3" y1="67.28" x2="-1665.04" y2="43.28" gradientTransform="translate(-1345.9) rotate(-180) scale(1 -1)" xlink:href="#linear-gradient-14"/>
    <linearGradient id="linear-gradient-52" x1="295.42" y1="77.07" x2="305.24" y2="4.08" xlink:href="#linear-gradient-14"/>
    <linearGradient id="linear-gradient-53" x1="297.63" y1="43.69" x2="303.53" y2="-.13" xlink:href="#linear-gradient"/>
    <linearGradient id="linear-gradient-54" x1="231.37" y1="83.61" x2="183.04" y2="-223.74" xlink:href="#linear-gradient-14"/>
    <linearGradient id="linear-gradient-55" x1="384.23" y1="83.3" x2="594.88" y2="-185.33" xlink:href="#linear-gradient-14"/>
    <linearGradient id="linear-gradient-56" x1="306.72" y1="114.75" x2="282.83" y2="205.85" gradientUnits="userSpaceOnUse">
      <stop offset="0" stop-color="#233894"/>
      <stop offset="1" stop-color="#dd397a"/>
    </linearGradient>
  </defs>
  <path class="cls-31" d="M374.08,0H26.54C11.56,0-.32,11.84,0,26.3L7.02,333.55c.3,13.25,12.12,23.89,26.39,23.78l331.16-2.52c14.06-.11,25.77-10.81,26.17-23.96l9.25-304.78c.44-14.34-11.16-26.07-25.91-26.07Z"/>
  <path class="cls-26" d="M344.83,26.92l-42.67,.02c-3.44,0-6.61,1.92-8.14,4.93-7.77,15.21-15.51,30.37-23.22,45.48-1.52,2.98-4.66,4.87-8.08,4.88-41.36,.07-82.8,.15-124.3,.22-3.43,0-6.58-1.89-8.09-4.86-7.64-15.13-15.32-30.32-23.03-45.58-1.53-3.02-4.71-4.95-8.17-4.94l-43.13,.02c-14.91,0-26.78,11.69-26.5,26.04l4.85,255.47c.25,13.34,12.06,24.03,26.36,23.93l277.15-1.97c14.12-.1,25.85-10.88,26.2-24.13l6.74-253.69c.38-14.24-11.23-25.82-25.95-25.82Z"/>
  <path class="cls-3" d="M270.6,30.13c-1.23-1.97-3.43-3.17-5.82-3.16-42.6,.02-85.29,.05-128.05,.07-2.4,0-4.62,1.2-5.88,3.18-1.25,1.98-1.35,4.44-.27,6.52,5.21,10,10.41,19.97,15.6,29.91,1.52,2.92,4.64,4.77,8.03,4.76,30.99-.05,61.93-.09,92.84-.14,3.38,0,6.49-1.85,8.03-4.78,5.24-9.93,10.48-19.89,15.75-29.86,1.09-2.07,1-4.53-.22-6.5Z"/>
  <path class="cls-48" d="M202.29,49.04c0,.72-.61,1.7-1.36,1.7h-.34c-.75,0-1.35-.97-1.35-1.7l.05-14.39c0-.73,.61-1.31,1.36-1.31h.34c.75,0,1.36,.58,1.36,1.31l-.05,14.39Z"/>
  <g>
    <path class="cls-1" d="M184.28,49.47c.41,.61,.23,1.42-.4,1.82h0c-.63,.4-1.47,.23-1.88-.38l-8.15-12.1c-.41-.61-.23-1.42,.4-1.82h0c.63-.4,1.47-.23,1.88,.38l8.14,12.11Z"/>
    <path class="cls-47" d="M169.51,58.05c.59,.44,.7,1.27,.24,1.84h0c-.46,.57-1.31,.67-1.9,.23l-11.79-8.84c-.59-.44-.7-1.27-.24-1.84h0c.46-.57,1.31-.68,1.91-.23l11.79,8.85Z"/>
  </g>
  <g>
    <path class="cls-56" d="M216.81,49.44c-.41,.61-.24,1.42,.38,1.81h0c.62,.39,1.46,.22,1.88-.38l8.22-12.11c.41-.61,.24-1.42-.38-1.82h0c-.63-.4-1.47-.22-1.88,.39l-8.22,12.11Z"/>
    <path class="cls-35" d="M231.49,57.97c-.59,.44-.71,1.27-.25,1.84h0c.45,.57,1.3,.67,1.9,.23l11.82-8.86c.59-.45,.71-1.27,.25-1.84h0c-.45-.57-1.3-.67-1.9-.23l-11.82,8.86Z"/>
  </g>
  <g class="cls-39">
    <path class="cls-17" d="M202.89,89.03c0,1.11-.95,1.94-2.1,1.94h-.38c-1.15,0-2.08-.82-2.08-1.93l.12-32.29c0-1.12,.95-1.65,2.11-1.65h.38c1.16,0,2.1,.52,2.09,1.64l-.14,32.29Z"/>
  </g>
  <path class="cls-42" d="M17.77,137.4c-.42,0-.77-.32-.78-.72l-2.14-102.24c-.26-12.68,10.57-23.04,24.14-23.04h20.22c.43,0,.78,.33,.78,.74,0,.41-.33,.75-.76,.75h-20.22c-12.72,0-22.87,9.69-22.63,21.55l2.11,102.24c0,.4-.33,.73-.75,.73Z"/>
  <path class="cls-57" d="M378.54,324.12c-.4,0-.72-.3-.71-.68l2.23-78.02c.01-.39,.35-.7,.76-.7,.41,0,.73,.31,.72,.69l-2.24,78.02c-.01,.38-.35,.69-.75,.69Z"/>
  <path class="cls-31" d="M379.74,349.73l-9.72-1.01c-5.1-5.98-10.19-11.68-15.29-17.66-1.21-1.42-2.99-1.96-4.85-1.96h-103.05c-1.87,0-3.64,.54-4.85,1.96-5.1,5.98-10.19,11.82-15.29,17.8l-9.76,.94,.02,13.08c.04,.8,.22,1.74,.56,2.49,1.04,2.26,3.3,3.84,5.78,3.84h150.11c2.49,0,4.74-1.6,5.79-3.86,.35-.75,.52-1.63,.56-2.43l-.02-13.2Z"/>
  <path class="cls-44" d="M378.25,346.28c-7.84-9.2-15.69-17.87-23.53-27.07-1.21-1.42-2.99-1.7-4.85-1.7h-103.05c-1.87,0-3.64,.28-4.85,1.7-7.84,9.2-15.69,18.14-23.53,27.34-1.61,1.89-1.98,4.59-.94,6.84,1.04,2.26,3.3,3.74,5.78,3.74h150.11c2.49,0,4.74-1.61,5.79-3.87,1.04-2.26,.68-5.09-.94-6.98Z"/>
  <path class="cls-31" d="M292.87,353.26c-4.67,0-8.33-2.01-10.02-4.19-1.55-1.99-1.3-4.73,.71-7.15,1.08-1.38,3.34-3.16,5.8-3.16h17.99c2.47,0,4.72,1.4,5.8,2.78,2.01,2.42,2.27,5.57,.71,7.57-1.7,2.18-5.35,4.15-10.03,4.15h-10.96Z"/>
  <path class="cls-5" d="M307.34,341.18h-17.98c-1.01,0-2.44,1.25-3.18,2.22-3.23,3.86-.23,7.44,6.7,7.44h10.95c6.93,0,9.93-3.59,6.7-7.44-.74-.97-2.17-2.22-3.18-2.22Z"/>
  <path class="cls-25" d="M297.34,341.79l.73,5.99c0,.06,.06,.1,.12,.11,.06,0,.11-.04,.12-.1l1.05-6.71s-2.22-.99-2.01,.73Z"/>
  <ellipse class="cls-22" cx="152.75" cy="208.07" rx="42.11" ry="42.15"/>
  <ellipse class="cls-61" cx="152.75" cy="208.07" rx="40.71" ry="40.75"/>
  <path class="cls-5" d="M115.22,206.51s-.02,0-.02,0c-.24-.01-.42-.22-.41-.45,.08-1.6,.27-3.21,.55-4.78,.04-.23,.26-.39,.5-.35,.23,.04,.39,.27,.35,.5-.28,1.53-.46,3.11-.54,4.67-.01,.23-.2,.41-.43,.41Z"/>
  <path class="cls-5" d="M119.18,191.58c-.07,0-.13-.01-.19-.05-.21-.11-.3-.37-.19-.58,6.51-12.91,19.52-20.93,33.96-20.93,2.3,0,4.61,.21,6.86,.62,.23,.04,.39,.27,.35,.5-.04,.23-.27,.39-.5,.35-2.2-.4-4.45-.6-6.7-.6-14.11,0-26.83,7.84-33.19,20.45-.08,.15-.23,.24-.38,.24Z"/>
  <ellipse class="cls-4" cx="153.64" cy="208.96" rx="34.46" ry="34.49"/>
  <path class="cls-62" d="M164.49,192.09c-4.06,0-7.68,2.13-10.03,5.46-2.35-3.32-5.97-5.46-10.03-5.46-7.08,0-12.81,6.46-12.81,14.43,0,7.11,12.28,20.14,20.26,25.26,1.56,1,3.58,.91,5.06-.22,6.86-5.26,20.37-18.03,20.37-25.05,0-7.97-5.74-14.43-12.81-14.43Z"/>
  <path class="cls-14" d="M155.31,218.89s-.04,0-.05,0c-.52-.02-.98-.33-1.19-.8l-5.96-13.13-5.77,6.32c-.26,.28-.62,.44-1.01,.44h-14.66c-.75,0-1.36-.61-1.36-1.37s.61-1.37,1.36-1.37h14.06l6.75-7.41c.31-.34,.77-.5,1.22-.43,.45,.07,.84,.37,1.03,.78l5.7,12.55,5.85-10.59c.25-.46,.75-.73,1.27-.7,.52,.03,.98,.35,1.18,.83l2.38,5.65h12.73c.75,0,1.36,.61,1.36,1.37s-.61,1.37-1.36,1.37h-13.64c-.55,0-1.04-.33-1.26-.84l-1.64-3.89-5.8,10.51c-.24,.44-.7,.7-1.19,.7Z"/>
  <ellipse class="cls-8" cx="158.13" cy="104.18" rx="42.11" ry="42.15"/>
  <ellipse class="cls-29" cx="158.13" cy="104.18" rx="40.71" ry="40.75"/>
  <path class="cls-5" d="M120.6,102.61s-.02,0-.02,0c-.24-.01-.42-.22-.41-.45,.08-1.6,.27-3.21,.55-4.78,.04-.23,.26-.39,.5-.35,.23,.04,.39,.27,.35,.5-.28,1.53-.46,3.11-.54,4.67-.01,.23-.2,.41-.43,.41Z"/>
  <path class="cls-5" d="M124.56,87.68c-.07,0-.13-.01-.19-.05-.21-.11-.3-.37-.19-.58,6.51-12.91,19.52-20.93,33.96-20.93,2.3,0,4.61,.21,6.86,.62,.23,.04,.39,.27,.35,.5-.04,.23-.27,.39-.5,.35-2.2-.4-4.45-.6-6.7-.6-14.11,0-26.83,7.84-33.19,20.45-.08,.15-.23,.24-.38,.24Z"/>
  <ellipse class="cls-4" cx="159.02" cy="105.07" rx="34.46" ry="34.49"/>
  <path class="cls-6" d="M145.51,125.99c-.78-.78-7.6-7.8-6.33-13.24,.3-1.27,1.02-2.22,2.09-2.74,3.02-1.47,8.08,.89,11.78,2.62,.59,.28,1.13,.53,1.59,.73,.75,.33,3.78-1.13,6.27-4.39,1.49-1.95,4.56-6.96,1.02-11.37-7.01-8.72-3.75-18.34-3.61-18.74l2.73,.95c-.12,.34-2.84,8.54,3.13,15.97,3.35,4.17,2.98,9.75-.98,14.94-2.64,3.46-6.94,6.5-9.72,5.29-.48-.21-1.04-.47-1.66-.76-2.63-1.23-7.52-3.51-9.3-2.64-.2,.1-.42,.27-.54,.79-.77,3.29,3.87,8.85,5.56,10.54l-2.04,2.04Z"/>
  <path class="cls-9" d="M175.29,94.22c-1.34-2.16-3.56-3.63-6.08-4.02-4.95-.76-8.36,2.61-9.46,7.18-.44,1.86-.71,3.9-1.73,5.55-1.42,2.29-3.66,2.38-5.94,3.36-4.32,1.84-5.53,7.34-3.54,11.25,2.83,5.56,11.02,5.65,16.05,3.57,8.66-3.57,16.07-18.23,10.7-26.89Z"/>
  <ellipse class="cls-55" cx="150.74" cy="307.67" rx="42.11" ry="42.15"/>
  <ellipse class="cls-16" cx="150.74" cy="307.67" rx="40.71" ry="40.75"/>
  <path class="cls-5" d="M113.21,306.11s-.02,0-.02,0c-.24-.01-.42-.22-.41-.45,.08-1.6,.27-3.21,.55-4.78,.04-.23,.26-.39,.5-.35,.23,.04,.39,.27,.35,.5-.28,1.53-.46,3.11-.54,4.67-.01,.23-.2,.41-.43,.41Z"/>
  <path class="cls-5" d="M117.17,291.17c-.07,0-.13-.01-.19-.05-.21-.11-.3-.37-.19-.58,6.51-12.91,19.52-20.93,33.96-20.93,2.3,0,4.61,.21,6.86,.62,.23,.04,.39,.27,.35,.5-.04,.23-.27,.39-.5,.35-2.2-.4-4.45-.6-6.7-.6-14.11,0-26.83,7.84-33.19,20.45-.08,.15-.23,.24-.38,.24Z"/>
  <ellipse class="cls-4" cx="151.63" cy="308.56" rx="34.46" ry="34.49"/>
  <path class="cls-33" d="M163.53,313.83c0,7.09-5.74,12.84-12.82,12.84s-12.82-5.75-12.82-12.84,10.08-27.9,12.82-27.9c3.24,0,12.82,20.81,12.82,27.9Z"/>
  <path class="cls-45" d="M48.12,356.95s-.78,4.41-1.16,8.77c-.15,1.71,1.16,3.19,2.87,3.26,5.8,.24,18.22,.71,22.68,.51,.67-.03,1.11-.72,.86-1.34h0c-.21-.52-.61-.94-1.12-1.18l-20.51-9.44-3.62-.59Z"/>
  <path class="cls-54" d="M47.48,354.36l.62,5.27s3.59,1.67,6.05-.21l-1.49-5.88-5.18,.81Z"/>
  <path class="cls-43" d="M47.95,255.24c-.27,1.38-1.45,68.71,5.74,98.88,.12,.49-.13,1-.6,1.19-1.1,.45-3.26,1.1-5.86,1.19-.8,.03-1.52-.5-1.75-1.27-2.06-7-11.9-42.08-13.19-75.58-1.44-37.44,0-1.27,0-1.27l.84-23.14h14.81Z"/>
  <path class="cls-34" d="M24.52,359.25s-1.24,2.23-2.44,8.14c-.22,1.07,.53,2.09,1.61,2.2,1.92,.19,4.87,.43,7.23,.41,1.09,0,1.94-.96,1.81-2.04-.26-2.16-1.08-5.7-3.6-8.46l-4.62-.25Z"/>
  <path class="cls-63" d="M23.44,352.47l1.46,7.97s1.44,1.07,4.3,.3l-.7-8.58-5.06,.31Z"/>
  <path class="cls-49" d="M19.49,257.31c-5.88,35.52,1.28,87.8,3.69,98.03,.15,.63,.65,1.11,1.29,1.21,1.08,.18,2.85,.32,4.6-.18,.6-.18,1.03-.72,1.05-1.35,.32-8.27-.26-59.05,5.22-79.12,.28-1.02,.9-1.9,1.76-2.52l10.63-7.57,.82-12.23-29.05,3.73Z"/>
  <path class="cls-13" d="M56.96,190c-17.62-.29-36.43,5.11-36.43,5.11-5.25,30.68-1.55,65.59-1.55,65.59,13.64,3.58,29.03-2.19,29.03-2.19,2.27-12.82,12.85-48.91,12.85-48.91,8.61-1.07,6.74-8.14,12.58-11.43-4.46-5.17,2.41-2.66,1.49-6.55-6.23,1.94-12.54-1.53-17.97-1.62Z"/>
  <path class="cls-3" d="M109.01,164.01c-1.73-2.09-3.92-1.1-3.92-1.1-2.59,10.97-16.19,19.86-30.16,24.2,.91,3.89,3.01,10.47,7.47,15.64,23.18-13.05,26.61-38.74,26.61-38.74Z"/>
  <path class="cls-52" d="M108.59,164.55c.18,.58-1.92,1.45-3.15-.9-.04-1.13-.73-5.97-.06-6.89,3.59-4.9,10.56-11.05,10.56-11.05,1.18,1.16,.21,2.3,.21,2.3l-3.38,3.52c.71,1.28,1.57,2.36,1.97,3.9,.31,1.17,.12,2.42-.47,3.49-.59,1.07-1.4,2.46-2.17,3.55-1.45,2.06-3.51,2.07-3.51,2.07Z"/>
  <path class="cls-53" d="M111.29,153.82l-3.08,2.61-.97,2.6,2.75,3.05s.92-5.16,1.61-6.28c.69-1.12,.33-1.66-.31-1.98Z"/>
  <path class="cls-30" d="M26.65,211.71l-6.76-17.08S3.43,205.82,.73,220.02c3.11,.23,8.77,1.04,14.31,3.84,1.22-6.7,11.62-12.15,11.62-12.15Z"/>
  <path class="cls-21" d="M39.11,175.67l-5.61,16.23c-.09,.27,.02,.57,.27,.7,1.53,.85,7.04,3.29,13.67-.92,.69-.44,1.16-1.15,1.27-1.97l1.82-14.05h-11.41Z"/>
  <path class="cls-50" d="M28.47,192.88l6.69-5.69,10.01,24.46-7.3,97.2-22.79,.68c-.16,0-.32-.06-.43-.17-.11-.11-.18-.27-.17-.43l3.18-93.51s.09-20.21,2.23-20.71c2.15-.51,8.57-1.83,8.57-1.83Z"/>
  <path class="cls-3" d="M45.17,210.4l3.88-23.21,3.32,2.92,6.99-.07,1.5,19.63-9.98,100.44c-.02,.16-.1,.3-.22,.4-.13,.1-.29,.14-.44,.12l-12.34-1.78,7.3-98.46Z"/>
  <path class="cls-3" d="M58.44,190.07s11.24-.78,17.73-3.28c7.62,13.56,9.6,13.96,9.6,13.96,0,0-9.23,8.2-24.92,8.92-15.69,.73-2.42-19.6-2.42-19.6Z"/>
  <polygon class="cls-40" points="49.68 211.46 49.68 213.83 58.37 213.31 58.37 210.66 49.68 211.46"/>
  <path class="cls-26" d="M44.63,217.4c-.06,0-.12-.01-.17-.04l-7.69-4.13c-.1-.05-.17-.15-.19-.26l-1.04-7.01-2.72-.48c-.13-.02-.24-.12-.28-.25l-2.97-9.65c-.06-.19,.05-.39,.24-.45,.19-.06,.39,.05,.45,.24l2.9,9.44,2.76,.49c.15,.03,.27,.15,.29,.3l1.05,7.09,7.53,4.05c.17,.09,.24,.31,.15,.49-.06,.12-.19,.19-.32,.19Z"/>
  <path class="cls-26" d="M46.46,215s-.09-.01-.13-.04c-.13-.07-.17-.24-.1-.37l4.02-7.05-.66-3.97c-.02-.11,.04-.23,.14-.28l3.2-1.7-.82-11.45c-.01-.15,.1-.28,.25-.29,.15,0,.28,.1,.29,.25l.83,11.63c0,.11-.05,.21-.14,.26l-3.18,1.69,.64,3.87c.01,.06,0,.12-.03,.18l-4.07,7.14c-.05,.09-.14,.14-.23,.14Z"/>
  <path class="cls-19" d="M41.06,227.28s-18.48,10.45-24.72,1.53c-1.29-1.85-1.6-3.7-1.29-5.45-5.54-2.8-11.2-3.61-14.31-3.84-.82,4.28-.38,8.83,2.13,13.43,10.92,20,40.63-1.11,40.63-1.11l-2.45-4.56Z"/>
  <path class="cls-15" d="M38.84,240.51l10.09-35.26c.11-.4,.46-.69,.87-.74,1.83-.21,7.12-.81,13.24-1.33,7.36-.62,15.92-1.13,21.03-.7,.73,.06,1.17,.83,.84,1.48-2.91,5.89-14.86,29.83-20.85,37.67-.2,.26-.51,.41-.83,.41l-23.4-.22c-.68,0-1.17-.66-.98-1.32Z"/>
  <path class="cls-31" d="M64.07,200.12l7.31-1.22c.39-.06,.71,.31,.58,.68l-.72,2.2c-.06,.19-.23,.33-.43,.36l-7.04,.94c-.36,.05-.66-.28-.58-.64l.45-1.92c.05-.21,.22-.36,.42-.4Z"/>
  <path class="cls-31" d="M58.6,206.32l.6-3.14c.06-.32,.32-.55,.64-.59l14.77-1.5c.5-.05,.9,.41,.78,.89l-.94,3.91c-.08,.31-.35,.54-.67,.56l-14.43,.73c-.47,.02-.84-.4-.75-.86Z"/>
  <path class="cls-28" d="M41.27,231.99s-1.41-5.78-.84-7.83c.57-2.05,1.66-4.69,5.33-4.1,3.66,.59,7.98,2.13,7.98,2.13,0,0-.22,2.67-3,1.81l1.72,1.34s-.25,2.14-2.6,1l1.6,1.77s-1.01,1.76-2.74,.63c-1.73-1.13-2.56,3.96-7.46,3.26Z"/>
  <path class="cls-26" d="M23.66,232.67c-1.74,0-3.33-.26-4.55-.92-.17-.1-.24-.31-.14-.49,.1-.17,.31-.24,.49-.14,4.88,2.68,16.98-1.93,17.1-1.98,.04-.01,2.35-.82,3.18-2.42,.09-.18,.31-.25,.48-.16,.18,.09,.25,.31,.16,.48-.95,1.87-3.46,2.74-3.57,2.77-.38,.15-7.5,2.86-13.14,2.86Z"/>
  <path class="cls-26" d="M16.99,243.08c-.19,0-.35-.7-.36-.89,0-.2,.15-.64,.35-.64,13.98-.48,21.95-7.03,22.03-7.09,.15-.13,.38-.17,.5-.02,.13,.15,.1,.89-.05,1.02-.08,.07-8.23,7.14-22.46,7.63h-.01Z"/>
  <path class="cls-51" d="M52.33,157.52c.18,.25,5.87,20.1,5.87,20.1l-11.39,3.01-8.18-18.01s10.65-9.34,13.7-5.1Z"/>
  <path class="cls-24" d="M43.15,163.96c-.28,.45-.34,.99-.16,1.48l3.51,9.67c.05,.15,.12,.28,.22,.41,.51,.7,2.3,2.78,4.37,.82,1.77-1.67,3.42-3.19,4.96-3.64,.9-.27,1.84,.27,2.1,1.17,.53,1.86,1.51,5.65,1.92,9.13,.1,.87-.49,1.67-1.36,1.84-2.27,.45-6.74,1.18-10.54,.98-.62-.03-1.18-.41-1.44-.97-1.17-2.49-4.47-9.46-5.71-11.28-1.15-1.69-3.87-1.67-5.12-1.56-.47,.04-.94-.11-1.29-.43-1.06-.96-2.8-3.16-.3-5.84,.62-.67,.58-1.72-.08-2.36-1.17-1.14-2.3-3.08-.4-5.49,1.93-2.44,4.48-2.2,6.14-1.66,.74,.24,1.58,0,2-.66,.19-.29,.5-.51,.99-.51,.93,0,1.67-.71,1.67-1.64,0-1.59,.61-3.55,3.32-4.42,4.97-1.6,8.13,3.19,8.47,6.79,.34,3.6-5.15,5.02-8.39,4.81-2.38-.16-4.14,2.13-4.91,3.36Z"/>
  <path class="cls-11" d="M42.37,177.13s-.86-6.24-3.46-6.52c-2.6-.28-5.11,1.88-2.49,5.36,3.25,4.33,5.95,1.16,5.95,1.16Z"/>
  <path class="cls-26" d="M53.2,158.39c-.07,0-.14-.02-.2-.06-.17-.11-.21-.33-.1-.5,.01-.02,1.14-1.77,.55-3.59-.44-1.35-1.7-2.44-3.75-3.22-.19-.07-.28-.28-.21-.46,.07-.19,.28-.28,.46-.21,2.26,.87,3.67,2.1,4.17,3.68,.69,2.16-.58,4.12-.63,4.2-.07,.1-.18,.16-.3,.16Z"/>
  <path class="cls-32" d="M328.04,344.49c-6.58-.2-9.98-.99-11.74-1.71,0,.65,0,1.32,.02,2.01,.02,.74,.57,1.33,1.24,1.33l36.13-.14c1.15,0,1.83-1.34,1.33-2.4-4.74,.38-16.8,1.23-26.98,.92Z"/>
  <path class="cls-46" d="M317.87,330.72c.83-2.94,3.55-4.93,6.6-4.82l3.02,.1c16.05,3.89,24.15,12.8,27.33,17.27,.06,.09,.1,.18,.14,.27-4.74,.38-16.8,1.23-26.98,.92-6.58-.2-9.98-.99-11.74-1.71,.04-5.14,.81-9.18,1.62-12.03Z"/>
  <path class="cls-7" d="M317.67,311.22l1.99,17.12c-.03,1.78,1.21,3.2,2.76,3.34l6.65,.54c1.55,.13,4.6-.87,4.62-2.65l4.88-18.34h-20.9Z"/>
  <path class="cls-58" d="M269.73,344.49c6.58-.2,9.98-.99,11.74-1.71,0,.65,0,1.32-.02,2.01-.02,.74-.57,1.33-1.24,1.33l-36.13-.14c-1.15,0-1.83-1.34-1.33-2.4,4.74,.38,16.8,1.23,26.98,.92Z"/>
  <path class="cls-37" d="M279.9,330.72c-.83-2.94-3.55-4.93-6.6-4.82l-3.02,.1c-16.05,3.89-24.15,12.8-27.33,17.27-.06,.09-.1,.18-.14,.27,4.74,.38,16.8,1.23,26.98,.92,6.58-.2,9.98-.99,11.74-1.71-.04-5.14-.81-9.18-1.62-12.03Z"/>
  <path class="cls-60" d="M280.1,311.22l-1.99,17.12c.03,1.78-1.21,3.2-2.76,3.34l-6.65,.54c-1.55,.13-4.6-.87-4.62-2.65l-4.88-18.34h20.9Z"/>
  <path class="cls-59" d="M369.18,183.34l-70.23,.2-70.34-.2s-6.72,42.91,13.85,72.8c6.64,19.93,10.58,46.44,13.23,52.86,2.65,6.41,3.94,12.37,3.94,12.37h21.9l9.18-70.85c.44-3.39,3.33-5.99,6.74-5.99h2.99c3.29,0,6.07,2.34,6.49,5.61l11.49,71.56,19.62-.63s1.31-5.81,3.97-12.22c2.65-6.41,6.62-32.77,13.26-52.7,20.57-29.89,13.91-72.81,13.91-72.81Z"/>
  <path class="cls-20" d="M360.06,198.33c-18.38,11.35-26.51,21.71-55.96,22.95v.04c-.97,.05-2.5,.98-3.9,.98h-2.63c-1.4,0-3.61-.93-5.54-.98v-.04c-28.48-1.24-36.76-11.6-55.14-22.95-20.57-12.7-9-42.49-4.35-57.73,4.66-15.24,2.82-36.09,8.79-58.32,4.01-14.95,19.03-21.67,28.38-24.47,1.51-.46,2.9-.54,4.06-.81,2.33-.53,3.81-.46,3.81-.46h42.6s1.44-.06,3.77,.46c1.14,.27,2.51,.49,4.02,.94,9.36,2.8,24.3,9.46,28.31,24.4,5.97,22.23,3.87,43.04,8.53,58.28,4.65,15.23,15.82,44.99-4.76,57.7Z"/>
  <path class="cls-27" d="M323.96,57.01c-2.67,13.79-12.88,23.84-25.07,23.84s-22.44-9.97-25.08-23.77c2.33-.53,3.78-.53,3.78-.53h42.6s1.44-.06,3.77,.46Z"/>
  <path class="cls-23" d="M279.31,41.83s-7.15-5.24-6.5,6.13c.66,11.37,5.32,9.2,5.32,9.2l1.17-15.33Z"/>
  <path class="cls-2" d="M317.56,41.83s7.15-5.24,6.5,6.13c-.66,11.37-5.32,9.2-5.32,9.2l-1.17-15.33Z"/>
  <path class="cls-12" d="M279.91,32.43c-2.73,11.29-6.56,31.09,3.49,39.78,6.44,5.57,16.1,6.1,23.94,4.08,19.91-5.16,11.88-36.65,9.13-51.5,0,0-30.26-11.62-36.56,7.64Z"/>
  <path class="cls-18" d="M278.07,41.13s1.24-17.16,8.87-12.68c7.63,4.48,9.62,7.95,16.26,5.97,6.64-1.98,8.93-10.48,11.94-4.31,3.01,6.17,4.83,15.86,4.83,15.86,0,0,2.14-11.87,1.64-16.86-.5-4.98-.17-18.43-11.11-17.27,0,0-9.79,5.65-19.74,4.82-12.52-1.04-17.04,15.28-12.68,24.47Z"/>
  <path class="cls-36" d="M271.18,187.03c1.16,.17,2.16,0,0-4.82-2.16-4.82-13.77-2.16-13.77-2.16,0,0-24.71-40.53-15.75-53.65,8.96-13.11,28.52-34.9,15.75-63.36,0,0-38.65,17.37-45.12,39.79-6.43,22.28-10.39,70.13,39.86,92.73,0,0,0,0,0,0,5.03,6.56,14.04,6.56,22.01,3.91,7.96-2.66-4.15-12.62-2.99-12.45Z"/>
  <path class="cls-38" d="M325.76,187.03c-1.16,.17-2.16,0,0-4.82,2.16-4.82,13.77-2.16,13.77-2.16,0,0,24.71-40.53,15.75-53.65-8.96-13.11-28.52-34.9-15.75-63.36,0,0,38.65,17.37,45.12,39.79,6.43,22.28,10.39,70.13-39.86,92.73,0,0,0,0,0,0-5.03,6.56-14.04,6.56-22.01,3.91-7.96-2.66,4.15-12.62,2.99-12.45Z"/>
  <path class="cls-10" d="M332.39,146.52c-.09,0-.18-.03-.27-.08-28.99-18.58-65.55-5.4-65.92-5.27-.26,.1-.54-.04-.64-.29-.1-.26,.04-.54,.29-.64,.37-.14,37.4-13.48,66.8,5.36,.23,.15,.3,.46,.15,.69-.09,.15-.26,.23-.42,.23Z"/>
</svg>