<?xml version="1.0" encoding="UTF-8"?>
<svg xmlns="http://www.w3.org/2000/svg" xmlns:xlink="http://www.w3.org/1999/xlink" viewBox="0 0 500 500">
  <defs>
    <style>
      .cls-1 {
        fill: #26264f;
      }

      .cls-2 {
        fill: url(#linear-gradient-2);
      }

      .cls-3 {
        fill: url(#linear-gradient-51);
      }

      .cls-4, .cls-5 {
        fill: #fff;
      }

      .cls-6 {
        fill: url(#linear-gradient-17);
      }

      .cls-7 {
        fill: #97a6b7;
      }

      .cls-8 {
        fill: url(#linear-gradient-43);
      }

      .cls-9 {
        fill: url(#linear-gradient-15);
      }

      .cls-10 {
        fill: url(#linear-gradient-18);
      }

      .cls-11 {
        fill: url(#linear-gradient-40);
      }

      .cls-12 {
        fill: url(#linear-gradient-52);
      }

      .cls-13 {
        fill: url(#linear-gradient-28);
      }

      .cls-14 {
        fill: url(#linear-gradient-14);
      }

      .cls-15 {
        fill: url(#linear-gradient-36);
      }

      .cls-16 {
        fill: url(#linear-gradient-20);
      }

      .cls-17 {
        fill: url(#linear-gradient-6);
      }

      .cls-18 {
        isolation: isolate;
      }

      .cls-19 {
        fill: url(#linear-gradient-45);
      }

      .cls-19, .cls-20, .cls-21, .cls-22 {
        mix-blend-mode: multiply;
      }

      .cls-19, .cls-22 {
        opacity: .25;
      }

      .cls-20 {
        fill: url(#linear-gradient-29);
      }

      .cls-20, .cls-21 {
        opacity: .3;
      }

      .cls-23 {
        fill: url(#linear-gradient-35);
      }

      .cls-24 {
        fill: url(#linear-gradient-48);
      }

      .cls-25 {
        fill: url(#linear-gradient-32);
      }

      .cls-26 {
        fill: url(#linear-gradient-11);
      }

      .cls-27 {
        fill: url(#linear-gradient-50);
      }

      .cls-28, .cls-5 {
        mix-blend-mode: soft-light;
      }

      .cls-29 {
        fill: url(#linear-gradient-39);
      }

      .cls-30 {
        clip-path: url(#clippath-1);
      }

      .cls-31 {
        fill: url(#linear-gradient-10);
      }

      .cls-32 {
        fill: url(#linear-gradient-49);
      }

      .cls-33 {
        fill: url(#linear-gradient-37);
      }

      .cls-34 {
        fill: url(#linear-gradient-16);
      }

      .cls-35 {
        fill: url(#linear-gradient-31);
      }

      .cls-36 {
        fill: url(#linear-gradient-41);
      }

      .cls-37 {
        fill: #444b8c;
      }

      .cls-38 {
        fill: #d8dee8;
      }

      .cls-39 {
        fill: url(#linear-gradient-21);
      }

      .cls-40 {
        fill: url(#linear-gradient-25);
      }

      .cls-41 {
        fill: url(#linear-gradient-5);
      }

      .cls-42 {
        clip-path: url(#clippath);
      }

      .cls-43 {
        fill: url(#linear-gradient-34);
      }

      .cls-44 {
        fill: url(#linear-gradient-7);
      }

      .cls-45 {
        fill: url(#linear-gradient-24);
      }

      .cls-46 {
        fill: url(#linear-gradient-9);
      }

      .cls-47 {
        fill: url(#linear-gradient-22);
      }

      .cls-48 {
        fill: url(#linear-gradient-42);
      }

      .cls-49 {
        fill: url(#linear-gradient-3);
      }

      .cls-22 {
        fill: url(#linear-gradient-53);
      }

      .cls-50 {
        fill: url(#linear-gradient);
      }

      .cls-51 {
        fill: url(#linear-gradient-27);
      }

      .cls-52 {
        fill: url(#linear-gradient-33);
      }

      .cls-53 {
        fill: url(#linear-gradient-38);
      }

      .cls-54 {
        fill: url(#linear-gradient-30);
      }

      .cls-55 {
        fill: url(#linear-gradient-23);
      }

      .cls-56 {
        fill: url(#linear-gradient-19);
      }

      .cls-57 {
        fill: url(#linear-gradient-4);
      }

      .cls-58 {
        fill: url(#linear-gradient-8);
      }

      .cls-59 {
        fill: url(#linear-gradient-44);
      }

      .cls-60 {
        fill: url(#linear-gradient-47);
      }

      .cls-61 {
        fill: url(#linear-gradient-46);
      }

      .cls-62 {
        fill: #fcfdfe;
      }

      .cls-63 {
        fill: url(#linear-gradient-12);
      }

      .cls-64 {
        fill: url(#linear-gradient-13);
      }

      .cls-65 {
        fill: url(#linear-gradient-26);
      }
    </style>
    <linearGradient id="linear-gradient" x1="138.94" y1="22.64" x2="275.56" y2="896.07" gradientUnits="userSpaceOnUse">
      <stop offset="0" stop-color="#ff9085"/>
      <stop offset="1" stop-color="#fb6fbb"/>
    </linearGradient>
    <clipPath id="clippath">
      <path class="cls-50" d="M198.59,466.23c4.61,1.59,16.04,1.03,18.96-.34,19.43-9.11,56.93-23.81,65.88-44.54,1.53-3.54-12.34-14.43-12.92-18.66-7.15-9.07-10.19-11.78-12.72-23.72-7.46-35.25,62.39-59.76,17.26-103.02-33.06-31.68-72.93-34.72-38.26-93.09C271.46,124.49,278.68-9.68,193.18,.55c-49.07,5.87-37.53,75.9-75.6,104.39-36.18,27.08-35.75,64.39-8.1,105.17,27.65,40.78-1.32,47.18-29.76,75.86-34.17,34.45,25.86,73.41,55.12,89.04,23.56,12.59,75.01,60.44,63.77,91.22Z"/>
    </clipPath>
    <linearGradient id="linear-gradient-2" x1="95.68" y1="88.39" x2="214.52" y2="848.08" gradientUnits="userSpaceOnUse">
      <stop offset="0" stop-color="#fcb148"/>
      <stop offset=".05" stop-color="#fdb946"/>
      <stop offset=".14" stop-color="#fec144"/>
      <stop offset=".32" stop-color="#ffc444"/>
      <stop offset=".48" stop-color="#fdb946"/>
      <stop offset=".78" stop-color="#f99c4c"/>
      <stop offset=".87" stop-color="#f8924f"/>
      <stop offset="1" stop-color="#f8924f"/>
    </linearGradient>
    <clipPath id="clippath-1">
      <path class="cls-2" d="M197.69,468.84c4.28-.08,13.54-3.99,15.53-6,13.23-13.37,39.65-36.8,40.68-56.59,.18-3.38-14.58-8.17-16.35-11.49-8.66-5.32-12-6.63-17.74-15.71-16.93-26.81,33.16-68.08-17.27-90.12-36.94-16.14-70.73-6.61-60-65.18,10.73-58.57-24.33-171.34-91.68-137.1-38.65,19.65-7.73,73.88-30.4,108.86-21.55,33.23-9.78,63.86,25.48,89.13,35.25,25.27,13.34,39.28-1.34,71.51-17.63,38.71,43.76,52.7,72.65,56.76,23.27,3.27,80.3,27.18,80.45,55.94Z"/>
    </clipPath>
    <linearGradient id="linear-gradient-3" x1="185.5" y1="470.9" x2="441.67" y2="-56.74" gradientUnits="userSpaceOnUse">
      <stop offset="0" stop-color="#d8dee8"/>
      <stop offset="1" stop-color="#fff"/>
    </linearGradient>
    <linearGradient id="linear-gradient-4" x1="705.88" y1="156.02" x2="616.37" y2="409.33" gradientTransform="translate(-368.67 -49.29) scale(1 .98) skewX(-7.06)" xlink:href="#linear-gradient"/>
    <linearGradient id="linear-gradient-5" x1="646.51" y1="429.49" x2="712.78" y2="139.04" gradientTransform="translate(-368.67 -49.29) scale(1 .98) skewX(-7.06)" gradientUnits="userSpaceOnUse">
      <stop offset="0" stop-color="#444b8c"/>
      <stop offset="1" stop-color="#26264f"/>
    </linearGradient>
    <linearGradient id="linear-gradient-6" x1="-1649.2" y1="478.49" x2="-1649.31" y2="493.85" gradientTransform="translate(-1305.67) rotate(-180) scale(1 -1)" xlink:href="#linear-gradient-5"/>
    <linearGradient id="linear-gradient-7" x1="-1630.18" y1="478.62" x2="-1630.29" y2="493.98" gradientTransform="translate(-1305.67) rotate(-180) scale(1 -1)" xlink:href="#linear-gradient-5"/>
    <linearGradient id="linear-gradient-8" x1="-1651.61" y1="471.47" x2="-1653.29" y2="486.52" gradientTransform="translate(-1305.67) rotate(-180) scale(1 -1)" gradientUnits="userSpaceOnUse">
      <stop offset="0" stop-color="#ab316d"/>
      <stop offset="1" stop-color="#792d3d"/>
    </linearGradient>
    <linearGradient id="linear-gradient-9" x1="-1629.24" y1="473.96" x2="-1630.93" y2="489.01" xlink:href="#linear-gradient-8"/>
    <linearGradient id="linear-gradient-10" x1="-1659.54" y1="478.65" x2="-1658.28" y2="440.92" gradientTransform="translate(-1305.67) rotate(-180) scale(1 -1)" xlink:href="#linear-gradient-5"/>
    <linearGradient id="linear-gradient-11" x1="-1622.12" y1="479.9" x2="-1620.85" y2="442.16" gradientTransform="translate(-1305.67) rotate(-180) scale(1 -1)" xlink:href="#linear-gradient-5"/>
    <linearGradient id="linear-gradient-12" x1="-1641.71" y1="479.24" x2="-1640.45" y2="441.51" gradientTransform="translate(-1305.67) rotate(-180) scale(1 -1)" xlink:href="#linear-gradient-5"/>
    <linearGradient id="linear-gradient-13" x1="-1633.73" y1="348.71" x2="-1642.35" y2="405.51" gradientTransform="translate(-1305.67) rotate(-180) scale(1 -1)" gradientUnits="userSpaceOnUse">
      <stop offset="0" stop-color="#aa80f9"/>
      <stop offset="1" stop-color="#6165d7"/>
    </linearGradient>
    <linearGradient id="linear-gradient-14" x1="-1614.18" y1="317.03" x2="-1660.13" y2="291.37" xlink:href="#linear-gradient-8"/>
    <linearGradient id="linear-gradient-15" x1="-1646.01" y1="249.39" x2="-1645.38" y2="301.14" gradientTransform="translate(-1305.67) rotate(-180) scale(1 -1)" xlink:href="#linear-gradient-5"/>
    <linearGradient id="linear-gradient-16" x1="-1622.36" y1="331.58" x2="-1668.32" y2="305.93" xlink:href="#linear-gradient-8"/>
    <linearGradient id="linear-gradient-17" x1="-1622.2" y1="334.62" x2="-1629.83" y2="355.08" gradientTransform="translate(-1305.67) rotate(-180) scale(1 -1)" gradientUnits="userSpaceOnUse">
      <stop offset="0" stop-color="#ffc444"/>
      <stop offset="1" stop-color="#f36f56"/>
    </linearGradient>
    <linearGradient id="linear-gradient-18" x1="-1623.7" y1="350.6" x2="-1624.77" y2="339.53" xlink:href="#linear-gradient-17"/>
    <linearGradient id="linear-gradient-19" x1="-1632.91" y1="349.43" x2="-1632.64" y2="331.15" xlink:href="#linear-gradient-17"/>
    <linearGradient id="linear-gradient-20" x1="-1629.67" y1="349.48" x2="-1629.4" y2="331.2" xlink:href="#linear-gradient-17"/>
    <linearGradient id="linear-gradient-21" x1="-1625.77" y1="349.53" x2="-1625.51" y2="331.25" xlink:href="#linear-gradient-17"/>
    <linearGradient id="linear-gradient-22" x1="-1623.08" y1="349.57" x2="-1622.82" y2="331.29" xlink:href="#linear-gradient-17"/>
    <linearGradient id="linear-gradient-23" x1="-1620.36" y1="349.61" x2="-1620.09" y2="331.33" xlink:href="#linear-gradient-17"/>
    <linearGradient id="linear-gradient-24" x1="-1617.59" y1="349.65" x2="-1617.32" y2="331.37" xlink:href="#linear-gradient-17"/>
    <linearGradient id="linear-gradient-25" x1="-1615.88" y1="349.67" x2="-1615.61" y2="331.4" xlink:href="#linear-gradient-17"/>
    <linearGradient id="linear-gradient-26" x1="-1635.38" y1="349.39" x2="-1635.11" y2="331.11" xlink:href="#linear-gradient-17"/>
    <linearGradient id="linear-gradient-27" x1="-1627.23" y1="349.51" x2="-1626.96" y2="331.23" xlink:href="#linear-gradient-17"/>
    <linearGradient id="linear-gradient-28" x1="-1625.16" y1="337.15" x2="-1624.1" y2="345.7" xlink:href="#linear-gradient-8"/>
    <linearGradient id="linear-gradient-29" x1="-1624.61" y1="339.69" x2="-1623.8" y2="346.13" xlink:href="#linear-gradient-8"/>
    <linearGradient id="linear-gradient-30" x1="-1613.42" y1="341.57" x2="-1619.74" y2="347.47" gradientTransform="translate(-1305.67) rotate(-180) scale(1 -1)" gradientUnits="userSpaceOnUse">
      <stop offset="0" stop-color="#24abb5"/>
      <stop offset="1" stop-color="#425f63"/>
    </linearGradient>
    <linearGradient id="linear-gradient-31" x1="-1101.02" y1="573.1" x2="-1098.62" y2="589.63" gradientTransform="translate(-828.92 -130.65) rotate(174.92) scale(1 -1)" xlink:href="#linear-gradient-17"/>
    <linearGradient id="linear-gradient-32" x1="-1630.65" y1="342.62" x2="-1632.67" y2="348.75" xlink:href="#linear-gradient-30"/>
    <linearGradient id="linear-gradient-33" x1="-1101.03" y1="573.1" x2="-1098.63" y2="589.63" gradientTransform="translate(-828.92 -130.65) rotate(174.92) scale(1 -1)" xlink:href="#linear-gradient-17"/>
    <linearGradient id="linear-gradient-34" x1="-1640.59" y1="326.67" x2="-1639.18" y2="354.44" xlink:href="#linear-gradient-8"/>
    <linearGradient id="linear-gradient-35" x1="-1608.26" y1="325.04" x2="-1606.85" y2="352.82" xlink:href="#linear-gradient-8"/>
    <linearGradient id="linear-gradient-36" x1="-1633.74" y1="348.75" x2="-1642.36" y2="405.52" xlink:href="#linear-gradient-13"/>
    <linearGradient id="linear-gradient-37" x1="-1605.57" y1="356.28" x2="-1557.05" y2="384.97" xlink:href="#linear-gradient-13"/>
    <linearGradient id="linear-gradient-38" x1="-1649.71" y1="351.71" x2="-1708.68" y2="400.74" xlink:href="#linear-gradient-13"/>
    <linearGradient id="linear-gradient-39" x1="-1236.99" y1="162.92" x2="-1244.9" y2="175.71" gradientTransform="translate(-1018.01) rotate(-180) scale(1 -1)" xlink:href="#linear-gradient-17"/>
    <linearGradient id="linear-gradient-40" x1="-1123.6" y1="314.3" x2="-1120.41" y2="320.85" gradientTransform="translate(-1018.01) rotate(-180) scale(1 -1)" xlink:href="#linear-gradient-17"/>
    <linearGradient id="linear-gradient-41" x1="-2381.36" y1="481.49" x2="-2381.36" y2="460.9" gradientTransform="translate(-2267.58) rotate(-180) scale(1 -1)" xlink:href="#linear-gradient-17"/>
    <linearGradient id="linear-gradient-42" x1="-2444.55" y1="487.36" x2="-2444.55" y2="462.54" gradientTransform="translate(-2267.58) rotate(-180) scale(1 -1)" xlink:href="#linear-gradient-17"/>
    <linearGradient id="linear-gradient-43" x1="-2458.53" y1="389.85" x2="-2376.78" y2="389.85" gradientTransform="translate(-2267.58) rotate(-180) scale(1 -1)" gradientUnits="userSpaceOnUse">
      <stop offset="0" stop-color="#311944"/>
      <stop offset="1" stop-color="#893976"/>
    </linearGradient>
    <linearGradient id="linear-gradient-44" x1="-2460.92" y1="329.25" x2="-2402.33" y2="427.67" xlink:href="#linear-gradient-43"/>
    <linearGradient id="linear-gradient-45" x1="-2437.91" y1="315.55" x2="-2379.32" y2="413.97" xlink:href="#linear-gradient-43"/>
    <linearGradient id="linear-gradient-46" x1="274.7" y1="-5023.34" x2="336.71" y2="-4895.83" gradientTransform="translate(-833.82 -4683.4) rotate(-7.86) scale(1 -1)" xlink:href="#linear-gradient-13"/>
    <linearGradient id="linear-gradient-47" x1="-1200.59" y1="223.7" x2="-1137.74" y2="352.94" gradientTransform="translate(-1018.01) rotate(-180) scale(1 -1)" xlink:href="#linear-gradient-13"/>
    <linearGradient id="linear-gradient-48" x1="-2422.79" y1="207.55" x2="-2410.74" y2="226.7" gradientTransform="translate(-2267.58) rotate(-180) scale(1 -1)" gradientUnits="userSpaceOnUse">
      <stop offset="0" stop-color="#e38ddd"/>
      <stop offset="1" stop-color="#9571f6"/>
    </linearGradient>
    <linearGradient id="linear-gradient-49" x1="-2408.25" y1="204.68" x2="-2421.46" y2="226.04" gradientTransform="translate(-2267.58) rotate(-180) scale(1 -1)" xlink:href="#linear-gradient-17"/>
    <linearGradient id="linear-gradient-50" x1="-2942.71" y1="-729.75" x2="-2955.48" y2="-709.09" gradientTransform="translate(-2886.31 216.11) rotate(-166.34) scale(1 -1)" xlink:href="#linear-gradient-17"/>
    <linearGradient id="linear-gradient-51" x1="-1167.06" y1="113.21" x2="-1056.23" y2="289.37" gradientTransform="translate(-1018.01) rotate(-180) scale(1 -1)" xlink:href="#linear-gradient-5"/>
    <linearGradient id="linear-gradient-52" x1="-1207.79" y1="226.77" x2="-1145.97" y2="353.89" gradientTransform="translate(-1018.01) rotate(-180) scale(1 -1)" xlink:href="#linear-gradient-13"/>
    <linearGradient id="linear-gradient-53" x1="-1209.61" y1="227.92" x2="-1146.71" y2="357.27" gradientTransform="translate(-1018.01) rotate(-180) scale(1 -1)" xlink:href="#linear-gradient"/>
  </defs>
  <g class="cls-18">
    <g id="Illustration">
      <g>
        <g>
          <path class="cls-50" d="M198.59,466.23c4.61,1.59,16.04,1.03,18.96-.34,19.43-9.11,56.93-23.81,65.88-44.54,1.53-3.54-12.34-14.43-12.92-18.66-7.15-9.07-10.19-11.78-12.72-23.72-7.46-35.25,62.39-59.76,17.26-103.02-33.06-31.68-72.93-34.72-38.26-93.09C271.46,124.49,278.68-9.68,193.18,.55c-49.07,5.87-37.53,75.9-75.6,104.39-36.18,27.08-35.75,64.39-8.1,105.17,27.65,40.78-1.32,47.18-29.76,75.86-34.17,34.45,25.86,73.41,55.12,89.04,23.56,12.59,75.01,60.44,63.77,91.22Z"/>
          <g class="cls-42">
            <g class="cls-28">
              <g>
                <path class="cls-62" d="M249.08,445.09l.82-.63c-97.13-126.03-108.47-295.66-30.32-453.75l-.93-.45c-37.03,74.92-54.54,155.53-50.64,233.11,4.1,81.56,32.14,158.23,81.07,221.72Z"/>
                <path class="cls-62" d="M63.85,298.68c43.23,6.35,105.51,36.9,138.83,68.09l.71-.75c-33.45-31.31-95.98-61.97-139.39-68.35l-.15,1.02Z"/>
                <path class="cls-62" d="M230.3,420.13l.97-.38c-8.66-22.02-5.79-47.54,8.54-75.86,10.51-20.76,26.82-42.52,48.48-64.67l-.74-.72c-21.73,22.22-38.1,44.06-48.66,64.92-14.47,28.59-17.36,54.4-8.58,76.7Z"/>
                <path class="cls-62" d="M167.88,212.34l.98-.33c-14.18-42.34-51.93-70.54-81.1-86.74l-.51,.9c29.01,16.11,66.54,44.14,80.62,86.17Z"/>
                <path class="cls-62" d="M176.79,110.58l.96,.39c19.31-46.46,65.17-73.06,90.8-84.79l-.43-.94c-25.76,11.79-71.88,38.54-91.32,85.33Z"/>
              </g>
            </g>
          </g>
        </g>
        <g>
          <path class="cls-2" d="M197.69,468.84c4.28-.08,13.54-3.99,15.53-6,13.23-13.37,39.65-36.8,40.68-56.59,.18-3.38-14.58-8.17-16.35-11.49-8.66-5.32-12-6.63-17.74-15.71-16.93-26.81,33.16-68.08-17.27-90.12-36.94-16.14-70.73-6.61-60-65.18,10.73-58.57-24.33-171.34-91.68-137.1-38.65,19.65-7.73,73.88-30.4,108.86-21.55,33.23-9.78,63.86,25.48,89.13,35.25,25.27,13.34,39.28-1.34,71.51-17.63,38.71,43.76,52.7,72.65,56.76,23.27,3.27,80.3,27.18,80.45,55.94Z"/>
          <g class="cls-30">
            <g class="cls-28">
              <g>
                <path class="cls-62" d="M232.85,436.18l.49-.76C114.74,360.84,53.54,224.45,69.61,70.57l-.91-.09c-7.62,72.93,2.59,144.65,29.53,207.41,28.32,65.98,74.86,120.72,134.61,158.29Z"/>
                <path class="cls-62" d="M35.41,371.39c37.57-7.81,98.24-1.43,135.24,14.23l.36-.83c-37.14-15.71-98.06-22.12-135.79-14.28l.19,.89Z"/>
                <path class="cls-62" d="M209.73,421.27l.68-.6c-13.87-15.53-19.31-37.44-16.15-65.1,2.31-20.29,9.1-43.14,20.19-67.93l-.83-.37c-11.12,24.87-17.94,47.82-20.26,68.19-3.19,27.93,2.32,50.07,16.38,65.81Z"/>
                <path class="cls-62" d="M94.76,268.83l.71-.57c-24.63-30.62-64.37-42.47-93.36-47.03l-.14,.89c28.84,4.53,68.34,16.31,92.79,46.7Z"/>
                <path class="cls-62" d="M70.99,182.28l.91,.03c1.71-44.12,31.38-79.89,48.92-97.28l-.64-.64c-17.63,17.49-47.46,53.46-49.18,97.89Z"/>
              </g>
            </g>
          </g>
        </g>
        <g>
          <path class="cls-7" d="M352.98,146.73c2.55-4.25,112.74-88.73,112.74-88.73l24.67,21.92c7.2,6.39,10.63,15.96,9.35,26.07l-10.07,79.48-52.02,261.99c-2.26,11.39-10.22,21.59-21.14,27.11l-31.41,15.87-32.11-343.71Z"/>
          <path class="cls-49" d="M449.25,53.86l-270.07,17.02c-13.61,.86-26.05,13.39-27.9,27.99l-10.95,86.45c-.09,.73-.16,1.46-.19,2.19l-13.16,259.87c-.7,13.9,8.5,25.45,21.27,26.56l221.33,19.37c15.13,1.32,29.35-9.29,32.55-24.43l60.95-287.85c.17-.82,.31-1.64,.42-2.46l12.29-96.97c2.08-16.38-9.88-28.8-26.53-27.75Z"/>
          <path class="cls-38" d="M149.09,467.28c-9.54-.81-16.56-9.59-16.04-19.98l13.14-260.46c.03-.55,.08-1.1,.15-1.65l10.98-86.65c1.39-10.99,10.79-20.43,21.02-21.05l269.98-16.36c12.48-.76,21.45,8.61,19.9,20.87l-12.26,96.72c-.08,.61-.18,1.23-.31,1.85l-60.74,287.14c-2.38,11.27-13.15,19.34-24.43,18.38l-221.4-18.81Z"/>
          <path class="cls-5" d="M403.1,99.5l-194.49,9.41c-15.65,.76-29.92,14.83-32.02,31.43l-5.89,46.45c-.11,.83-.18,1.66-.22,2.49l-11.66,234.35c-.79,15.78,9.82,28.81,24.53,29.97l152.52,12.02c16.6,1.31,32.23-10.61,35.78-27.44l53.47-253.78c.19-.91,.35-1.82,.46-2.73l6.44-50.85c2.3-18.18-10.74-32.19-28.92-31.31Z"/>
          <g>
            <path class="cls-38" d="M412.94,91.3c-71.88-12.2-142.2-8.22-211.07,10.77-12.89,3.55-22.25,17.37-20.66,30.42l8.96,73.53c1.28,10.53,9.3,17.83,19.59,17.76l159.92-1c11.63-.07,22.88-8.03,27.35-19.42l31.72-80.81c5.73-14.59-1.54-28.83-15.81-31.26Z"/>
            <path class="cls-4" d="M211.47,210.3c-4.59,.05-8.19-3.2-8.77-7.89l-9.09-73.83c-.35-2.82,.43-5.79,2.18-8.37,1.76-2.6,4.28-4.45,7.08-5.21,32.98-8.94,66.73-14.4,100.32-16.09,34.41-1.73,69.69,.44,104.87,6.59,3.07,.54,5.5,2.3,6.84,4.96,1.33,2.65,1.39,5.82,.18,8.94l-31.47,80.44c-1.97,5.04-6.96,8.6-12.12,8.66l-160.02,1.79Z"/>
            <path class="cls-57" d="M294.64,166.5c17.8-.47,33.4,6.01,44.63,17.12l44.27-46.41c-20.83-19.61-49.34-30.6-81.51-29.09-31.45,1.48-61.12,14.69-84.75,35.03l29.66,42.32c13.38-11.34,30.11-18.51,47.69-18.97Z"/>
            <path class="cls-41" d="M296.8,209.35l-15.17,.17,16.99-80.85c.22-1.02,1.66-1.08,1.62-.06l-3.45,80.75Z"/>
          </g>
        </g>
        <g>
          <path class="cls-17" d="M348.14,487.19s1.53,3.47,0,5.19c-1.53,1.72-7.19,2.77-9.16,2.64-1.96-.12,1.89-3.53,4.1-5.26,2.2-1.73,3.34-3.18,5.06-2.57Z"/>
          <path class="cls-44" d="M326.4,488.63s2.04,4.97,.82,5.71c-1.22,.74-5.16,.7-5.52-.4-.36-1.1,.76-4.75,1.4-5.31,.64-.56,3.31,0,3.31,0Z"/>
          <path class="cls-58" d="M348.82,484.1l-.68,3.69c-.04,.23-.2,.42-.42,.5-.24,.09-.58,.15-.96,.03-.26-.08-.44-.32-.46-.59l-.22-3.41,2.74-.22Z"/>
          <path class="cls-46" d="M326.4,484.59l-.33,4.04c-.04,.45-.37,.82-.82,.88-.26,.04-.6,.02-1.02-.12-.37-.12-.62-.46-.66-.84l-.34-3.96h3.16Z"/>
          <path class="cls-31" d="M369.97,423.55c2.65,4.1-9.99,9.89-13.7,28.08-1.33,6.53-.94,11.87-3.88,25.78-.73,3.48-1.43,6.33-1.91,8.21h-5.51c-1.12-5.04-2.83-12.48-5.08-21.46-5.04-20.08-6.68-23.34-4.87-27.98,5.23-13.46,31.4-18.09,34.94-12.62Z"/>
          <path class="cls-26" d="M332.28,434.28c2.72,6.53-2.66,11.38-4.87,25.88-1.65,10.78-.51,20.05,.85,26.51-1.88-.16-3.75-.32-5.63-.47-2.53-5.88-6.68-15.36-12.15-26.94-11.57-24.48-15.66-30.05-12.93-33.81,5.06-6.98,29.93-2.71,34.73,8.84Z"/>
          <path class="cls-63" d="M383.1,407.56c2.58,12.32-23.22,32.97-49.59,33.69-2.47,.07-30.36,.4-43.28-20.09-2.37-3.76-8.79-13.94-5.19-21.38,10.01-20.68,93.79-12.56,98.05,7.78Z"/>
          <path class="cls-64" d="M334.18,316.46c23.78,.29,39.56,17.4,43.13,21.27,7.93,8.6,11.48,17.22,13.14,21.36,5.95,14.84,5.09,26.96,4.09,43.47-.97,16.12-3.47,18.51-5.09,19.51-5.94,3.65-12.59-3.8-26.4-7.33-14.5-3.7-17.79,1.8-48.78,3.75-30.88,1.94-35.93-3-37.7-5.26-2.08-2.67-3.18-6.2-1.91-22.09,1.64-20.51,2.46-30.77,5.79-38.22,7.8-17.45,28.15-36.78,53.72-36.47Z"/>
          <g>
            <path class="cls-14" d="M322.49,293.45c-2.31,2.78-3.09,3.03-4.27,5.01-.1,.18-2.34,4.03-2.2,8.34,.2,6.41,5.62,13.86,13.74,15.11,8.39,1.29,15.12-4.74,17.85-10.57,.2-.42,3.79-8.44-.51-16.28-4.36-7.96-14.77-11.98-19.21-9.22-1.87,1.16-1.31,2.68-5.4,7.61Z"/>
            <path class="cls-9" d="M346.8,316.19c2.14-.24,5.85-1.38,6.85-4.13,.98-2.7-1.61-4.35-.94-8.01,.52-2.84,2.36-3.41,3.29-5.47,3.5-7.79-11.84-24.02-16.78-21.87-1.25,.55-1.24,2.03-3.13,2.72-2.7,.99-4.45-1.38-6.54-.38-1.52,.73-1.04,2.19-3.2,5.58-1.89,2.97-3.5,3.8-3.18,4.47,.55,1.14,5.13-1.54,10.01-.74,6.92,1.14,13.54,9.12,12.34,14.75-1.08,5.08-8.08,6.18-7.53,9.34,.43,2.46,5.09,4.14,8.81,3.73Z"/>
            <path class="cls-34" d="M344.6,312.37c2.64-1.34,5.81,.54,6.01,2.05,.31,2.27-5.86,5.78-7.61,4.41-1.22-.95-1.25-5.01,1.6-6.46Z"/>
          </g>
          <g>
            <path class="cls-6" d="M331.44,345.21c2.61-.84,3.59-1.53,4-2.52,1.16-2.86-2.76-7.48-6.69-9.73-3.61-2.07-7.04-2.04-11.86-1.98-4.66,.05-8.01,.09-10.99,2.41-2.24,1.74-4.73,5.12-3.76,7.65,.55,1.43,2.06,2.19,5.57,3.21,13.72,4,21.93,1.54,23.73,.96Z"/>
            <path class="cls-10" d="M325.8,339.5c6.82,.67,8.35,2.78,8.21,4.67-.61,.35-1.43,.68-2.57,1.05-1.81,.58-10.01,3.03-23.73-.96-1.67-.49-2.88-.91-3.76-1.38-2.56-7.35,10.19-4.53,21.85-3.37Z"/>
            <path class="cls-56" d="M326.72,332.92c.69,.19,1.64,.69,1.56,1.05-.07,.33-1.02,.57-1.71,.23-.61-.3-.99-1.06-.81-1.3,.15-.2,.64-.06,.95,.03Z"/>
            <path class="cls-16" d="M323.56,332c.53,.07,1.22,.41,1.19,.77-.02,.3-.54,.58-.98,.53-.67-.07-1.15-.9-.98-1.19,.12-.21,.6-.14,.78-.12Z"/>
            <path class="cls-39" d="M320.04,331.37c.31,.03,1.38,.12,1.4,.39,.02,.25-.83,.65-1.67,.6-.8-.05-1.58-.53-1.53-.77,.06-.28,1.26-.25,1.79-.21Z"/>
            <path class="cls-47" d="M317.09,331.67c.36-.04,.63,.36,.57,.5-.09,.19-.93,.12-.99-.11-.04-.14,.18-.36,.42-.39Z"/>
            <path class="cls-55" d="M313.86,331.49c.68-.47,1.66-.03,1.7,.3,.06,.48-1.8,1.34-2.18,.95-.21-.22,0-.92,.48-1.25Z"/>
            <path class="cls-45" d="M311.77,331.82c.2,.02,.39,.28,.36,.47-.06,.34-.77,.47-.9,.3-.13-.17,.2-.81,.54-.77Z"/>
            <path class="cls-40" d="M309.77,331.82c.34-.14,.71,.1,.72,.27,.01,.26-.83,.63-1.01,.44-.12-.12-.05-.57,.3-.71Z"/>
            <path class="cls-65" d="M329.89,334.07c.03-.21-.52-.55-.72-.42-.13,.09-.15,.43,.06,.59,.25,.19,.63-.02,.66-.18Z"/>
            <path class="cls-51" d="M321.56,333.15c.21,.08,.33,.44,.21,.65-.18,.31-.84,.21-.93,0-.09-.23,.4-.77,.72-.65Z"/>
            <path class="cls-13" d="M330.54,347.18c1-.2,2.52-.55,2.74-1.44,.34-1.34-2.42-3.37-4.84-4.4-2.44-1.04-3.32-.55-9.51-1.31-1.88-.23-3.01-.43-6.03-.76-2.93-.33-4.91-.48-6.92,.51-.64,.31-1.78,.9-1.91,1.86-.16,1.14,1.21,2.19,1.86,2.67,5.26,3.94,16.51,4.5,24.62,2.88Z"/>
            <path class="cls-20" d="M329.88,347.17c.97-.14,2.46-.39,2.67-1.02,.33-.95-2.36-2.39-4.72-3.12-2.37-.74-3.23-.39-9.27-.93-1.83-.16-2.93-.3-5.87-.54-2.86-.23-4.78-.34-6.75,.36-.62,.22-1.74,.64-1.87,1.32-.15,.81,1.17,1.55,1.81,1.9,5.13,2.79,16.09,3.19,24,2.04Z"/>
            <path class="cls-54" d="M319.1,345.06c.07-.62-1.31-1.29-1.82-1.5-1.54-.62-2.1,.2-4.03-.4-.73-.23-1.23-.53-2.21-.56-.65-.02-.87,.09-1.34,.12-1.68,.11-2.27-1.11-3.76-1.39-1.83-.35-4.04,.88-4.06,1.84-.02,.89,1.84,1.6,3,2.03,6.39,2.37,14.07,1.3,14.22-.13Z"/>
            <path class="cls-35" d="M333.33,352.35c.77-.57,1.12-1.34,1.12-1.34,.43-.96,.35-2.12-.09-2.94-.73-1.35-2.4-1.73-3.32-1.92-6.9-1.47-10.91-1.67-10.91-1.67-5.75-.3-7.87-.38-10.95-.18-4.75,.3-6.32,.91-7.01,2.13-.61,1.08-.57,2.68,.16,3.81,1.81,2.83,6.5,.5,15.43,1.48,4.93,.54,13.31,2.32,15.58,.65Z"/>
            <path class="cls-25" d="M329.58,343.79c.81,.43,.96,.68,1.6,1.09,1.33,.86,1.89,.58,2.33,1.27,.29,.45,.42,1.15,.12,1.54-.42,.54-1.53,.3-2.33,.11-2.19-.5-2.47-1.32-4.62-2.06-1.79-.62-3.54-.73-3.73-.74-1.35-.08-1.78,.11-2.72-.18-1.58-.48-2.73-1.72-2.57-2.05,.13-.25,.96,.26,2.51,.18,1.44-.07,1.47-.56,2.69-.59,1.65-.05,1.7,.84,3.55,.82,.65,0,1.24-.12,2.1,.14,.44,.13,.78,.32,1.07,.47Z"/>
            <g class="cls-21">
              <path class="cls-52" d="M304.72,348.66c1.47-.12,2.49-.72,2.97-.98,4.25-2.25,11.64-1.46,16.45,.33,4.22,1.58,5.63,3.62,8.47,2.94,.81-.19,1.51-.55,2.11-.98-.03,.35-.12,.7-.27,1.03,0,0-.35,.78-1.12,1.34-2.27,1.67-10.64-.11-15.58-.65-8.92-.97-13.61,1.35-15.43-1.48-.37-.58-.56-1.29-.58-1.98,.87,.31,1.88,.51,2.97,.41Z"/>
            </g>
          </g>
          <path class="cls-43" d="M334.59,356.83c.46-.85,.97-2.04,1.23-3.5,.87-5.02-1.9-9.7-2.62-9.53-.62,.14,1.04,3.71-.82,7.74-.61,1.33-1.39,2.22-1.15,3.5,.25,1.3,1.39,2.2,2.38,2.77,.33-.33,.66-.65,.98-.98Z"/>
          <path class="cls-23" d="M299.57,354.18c-.3-.95-.57-2.25-.54-3.77,.13-5.23,3.86-9.39,4.55-9.08,.6,.27-1.79,3.53-.72,7.96,.35,1.46,.95,2.52,.45,3.76-.51,1.26-1.84,1.94-2.95,2.32-.27-.39-.53-.79-.8-1.18Z"/>
          <g class="cls-21">
            <path class="cls-15" d="M317.1,372.64c13.56-9.71,14.98-21.8,23.15-21.6,9.2,.22,12.71,15.66,20.61,15.15,4.37-.28,13.82-13.97,19.68-24.66,5.7,7.25,8.5,14.04,9.91,17.57,5.95,14.84,5.09,26.96,4.09,43.47-.97,16.12-3.47,18.51-5.09,19.51-5.94,3.65-12.59-3.8-26.4-7.33-14.5-3.7-17.79,1.8-48.78,3.75-30.88,1.94-35.93-3-37.7-5.26-2.08-2.67-3.18-6.2-1.91-22.09,.33-4.07,.62-7.73,.9-11.04,.65,.24,1.31,.46,1.99,.67,19.47,5.83,37.03-6.34,39.53-8.14Z"/>
          </g>
          <path class="cls-33" d="M303.31,355.37c-1.69-.57-3.38-1.14-5.07-1.71-6.51,7.73-8.79,8.86-9.64,8.37-2.27-1.32,2.84-15.84,5.2-22.56,1.68-4.79,2.21-5.64,1.86-5.88-1.7-1.18-21.28,14.98-23.76,36.63-.86,7.46-.2,20.04,5.68,22.19,6,2.2,14.43-7.57,16-9.38,8.56-9.91,9.66-21.81,9.74-27.66Z"/>
          <path class="cls-53" d="M335.92,356.09c-1.65,.55-3.3,1.11-4.95,1.66-.96,3.02-4.12,14.16,1.43,25.39,6.84,13.86,23.65,21.28,38.83,17.9,11.84-2.64,21.85-11.67,25.21-22.61,8.18-26.65-26.93-52.21-30.98-49.73-3.11,1.9,10.39,21.45,1.89,38.49-2.2,4.42-4.38,5.65-5.68,6.14-6.56,2.48-16.7-4.29-25.75-17.24Z"/>
        </g>
        <g>
          <path class="cls-29" d="M219.38,175.97c-.81-1.24-2.28-3.89-2.38-7.45-.18-6.91,4.97-12.3,5.67-11.99,.37,.17-.1,2.19-.37,3.09-.55,1.87-1.15,2.05-1.1,2.91,.1,1.77,2.67,1.83,4.02,4.18,.97,1.69,1.05,4.09,0,5.99-1.75,3.16-5.68,3.27-5.85,3.27Z"/>
          <polygon class="cls-11" points="109.21 326.02 111.19 319.24 102.91 313.15 97.76 311.23 100.81 320.72 109.21 326.02"/>
          <path class="cls-36" d="M119.45,462.51s-4.53,11.31-3.34,16.33c-4.86-.09-8.01-.71-8.01-.71,0,0,1.95-5.16,2.33-7.72,.52-3.45,.48-9.04,.48-9.04l8.53,1.14Z"/>
          <path class="cls-1" d="M169.35,488.97c-.29,.35-.81,1.08-.86,2.08-.02,.54,.1,.98,.26,1.39,.77,2.02,1.98,2.28,3.29,4.43,.8,1.31,.65,1.7,1.38,2.29,.97,.78,2.13,.82,3.14,.83,1.71,.02,4.17-.04,7.27-.41-1.62-2.08-3.35-4.19-5.19-6.33-.81-.94-1.61-1.85-2.41-2.74l-4.78-1.6c-.7,.02-1.41,.04-2.11,.06Z"/>
          <path class="cls-48" d="M173.33,465.93s2.73,14.15-.74,18.12c-2.96,3.96,1.43,1.14,1.43,1.14l5.24,4.54,3.14,5.4s-2.89-13.85-2.12-19.35c.77-5.5,1.16-9.2,1.16-9.2l-8.11-.64Z"/>
          <path class="cls-8" d="M183.62,311.12s7.34,6.52,7.34,33.37-3.47,85.14-3.47,85.14l-5.56,41.74s-5.76,.2-9.63-.95c-3.47-15.72-9.14-42.32-6.43-64.57,1.16-24.16-9.65-54.46-9.65-54.46,0,0-9.27,30.68-15.83,46.02-6.56,15.34-19.06,63.4-20.22,66.85-7.68,.69-10.96-1.33-10.96-1.33,0,0,4.92-51.72,9.56-71.28,4.63-19.56,4.25-66.73,11.97-80.16,17.37-6.9,52.89-.38,52.89-.38Z"/>
          <path class="cls-59" d="M183.62,311.12s7.34,6.52,7.34,33.37-3.47,85.14-3.47,85.14l-5.56,41.74s-5.76,.2-9.63-.95c-3.47-15.72-9.14-42.32-6.43-64.57,1.16-24.16-9.65-54.46-9.65-54.46,0,0-9.27,30.68-15.83,46.02-6.56,15.34-19.06,63.4-20.22,66.85-7.68,.69-10.96-1.33-10.96-1.33,0,0,4.92-51.72,9.56-71.28,4.63-19.56,4.25-66.73,11.97-80.16,17.37-6.9,52.89-.38,52.89-.38Z"/>
          <path class="cls-19" d="M145.52,360.31c-2.29,14.77-6.86,22.72-18.3,32.95-9.15,6.82-2.29,21.59-5.72,32.95-1.14,3.41-4.57,6.82-5.72,10.22-4.26,8.46-.28,18.8-2.21,27.75-3-.41-4.37-1.24-4.37-1.24,0,0,4.92-51.72,9.56-71.28,4.63-19.56,4.25-66.73,11.97-80.16,17.37-6.9,52.89-.38,52.89-.38,0,0,7.34,6.52,7.34,33.37,0,2.18-.02,4.57-.07,7.11-7.61,6.7-23.19,8.18-32.79,.76-.58-.43-1.2-.7-1.84-.83-.03-.08-.05-.14-.05-.14,0,0-.02,.05-.04,.13-4.37-.79-9.66,4.85-10.65,8.79Z"/>
          <g>
            <path class="cls-1" d="M117.31,483.14s1.13,0,1.03,1.45c-.09,1.45,.51,6.43-5.23,6.66-5.74,.23-6.62-.4-6.81-.4s1.5-4.76,1.5-4.76l1.83-2.33,4.94-.51,2.73-.09Z"/>
            <path class="cls-37" d="M104.59,488.13c.12-1.2,.8-3.1,1.48-4.62,1.01-2.26,.18-3.11,1.15-5.17,.33-.71,.66-1.39,1.37-2.06,.16-.15,1.75-1.61,4.05-1.53,.45,.01,1.15,.04,1.91,.44,.89,.47,1.33,1.18,1.72,1.8,.6,.98,.46,1.28,1.38,4.07,.07,.22,.24,.71,.36,1.39,.1,.52,.13,.95,.15,1.24-1.5,0-7.29,.23-8.51,1.12-1.22,.89-1.83,2.38-1.83,3.88s-.75,2.19-1.5,2.15c-.67-.04-2.01-1.28-1.72-2.71Z"/>
          </g>
          <path class="cls-37" d="M174.06,482.06c-1.29,.02-2.24,1.04-2.95,3.5-.71,2.46-4.15,4.64-.14,4.12,4-.52,6.91,5.11,8.34,7.2,1.43,2.08,5.27,3.93,5.17,1.9-.1-2.04-1.79-2.99-2.26-5.07-.48-2.08-5.2-11.69-8.15-11.65Z"/>
          <path class="cls-61" d="M106.17,314.36c-.95-2.62-6.88-19.86,2.7-35.57,7.84-12.87,21.42-17.06,23.35-17.63,11.78-3.46,17.68,.98,21.4-3.1,6.31-6.93-.84-30.55-14.66-35.29-15.58-5.33-34.27,15.17-41.84,28.64-9.94,17.67-7.49,35.23-6.91,38.85,1.49,9.4,4.97,16.57,7.54,20.97,2.81,1.04,5.61,2.08,8.42,3.13Z"/>
          <path class="cls-60" d="M146.85,219.43c13.91-.55,24.63-.33,30.69,5.68,6.4,6.35-.07,13.52,1.32,30.14,2.13,25.44,18.44,31.65,19.67,57.46,.41,8.7-1.07,15.8-2.22,20.08-3.58,4.43-9.44,10.68-18.09,15.91-12.59,7.61-19.89,6.28-37.96,11.2-29.57,8.04-32.2,17.61-46.86,15.17-14.82-2.47-27.82-14.85-26.25-21.66,.94-4.07,6.91-2.92,13.79-9.13,8.86-8.01,5.45-15.65,12.18-24.26,9.68-12.36,23.17-4.8,31.41-15.52,8.34-10.84,5.03-32.19-2-43.83-4.59-7.6-6.56-16.51-10.47-24.49-.32-.66-.7-1.75-.54-3.11,.63-5.19,9.35-8.01,15.94-10.07,10.06-3.15,18.23-3.53,19.38-3.58Z"/>
          <path class="cls-24" d="M158.56,218.86l-2.74-.84s-.72,3.69-9.54,4.15c-4.89,0-8.06-2.72-8.06-2.72l-1.87,1.36s4.11,5.1,10.65,4.97c8.44-.17,11.56-6.92,11.56-6.92Z"/>
          <g>
            <path class="cls-32" d="M152.98,207.64c-.53-4.05-3.75-6.65-4.46-7.2-2.95-2.33-3.54-2.56-4.56-2.75l-1.38-.21s-.07,0-.15,0c-.81,.05-3.23,.99-3.67,1.3-1.41,.98-.37,7.95,3.9,16.61,.17,.73,.34,1.47,.5,2.2-3.72,.65-4.64,1.32-4.67,1.85-.06,1.15,4.01,2.62,7.78,2.72,4.73,.12,9.76-1.9,9.66-3.41-.04-.61-.93-1.37-4.37-2.11-.54-.75-1.07-1.5-1.61-2.25,.49-.59,3.41-3.77,3.02-6.75Z"/>
            <path class="cls-27" d="M147.13,206.12c-1.07-.64-1.89,.73-1.39,1.93,.51,1.2,2.2,1.95,3.24,1.23,1.03-.71-.41-2.31-1.85-3.17Z"/>
            <path class="cls-3" d="M7.98,206.1c14.13-15.23,47.01-11.06,65.25,1.18,8.47,5.69,12.82,12.4,22.84,12.96,7.61,.43,19.72-2.42,26.1-10.61,.8-1.03,4.02-5.36,8.84-10.82,2.13-2.41,4.24-4.66,7.52-5.18,.83-.13,3.6-.58,5.44,1.2,1.48,1.44,1.85,3.95,1.41,5.75-.26,1.08-.6,1.19-.55,1.9,.14,1.99,3.78,2.85,3.57,3.85-.14,.71-2.04,.45-2.37,1.35-.36,.98,1.72,1.83,2.62,4.3,1.68,1.11,2.73,3.89,3.1,7.6,.54,5.45-.01,9.89-1.05,13.22-5.01,16.07-8.59,27.56-17.26,33.98-11.48,8.5-21.81,.65-51.01-.59-39.98-1.7-49.95,11.76-64.32,2.55C.16,257.26-6.7,221.91,7.98,206.1Z"/>
          </g>
          <path class="cls-12" d="M217.69,175c.36,3.32,1.56,18.03-8.65,30.44-9.54,11.6-23.05,13.92-25.56,14.29-12.15,1.82-17.38-3.38-21.63,.17-7.2,6.01-3.38,30.38,9.66,36.95,14.7,7.4,36.03-10.38,45.39-22.69,12.27-16.16,12.27-33.89,12.2-37.55-.19-9.51-2.64-17.09-4.58-21.8-.8-.24-2.01-.5-3.5-.45-1.42,.05-2.57,.37-3.33,.64Z"/>
          <path class="cls-22" d="M92.95,365.36c3.56-3.62-.36-10.92,4.89-16.35,4.87-5.04,10.39-.97,18.24-5.3,10.07-5.56,7.29-15.74,16.91-21.22,6.91-3.94,10.16,.3,20.91-1.77,10.73-2.06,23.8-9.41,30.25-22.54,2.74-5.58,3.75-11.13,3.89-16.09,4.83,8.56,9.83,16.77,10.49,30.62,.41,8.7-1.07,15.8-2.22,20.08-3.58,4.43-9.44,10.68-18.09,15.91-12.59,7.61-19.89,6.28-37.96,11.2-29.57,8.04-32.2,17.61-46.86,15.17-9.47-1.58-18.18-7.2-22.83-12.84,13.67,6.04,19.81,5.74,22.39,3.11Z"/>
        </g>
      </g>
    </g>
  </g>
</svg>